<svg width="14" height="13" viewBox="0 0 41 43" fill="none" xmlns="http://www.w3.org/2000/svg">
    <path d="M32.5 1.5V5.5M8.5 1.5V5.5" stroke="#B9B8B8" stroke-width="3" stroke-linecap="round" stroke-linejoin="round"/>
    <path d="M20.491 23.5H20.509M20.491 31.5H20.509M28.4821 23.5H28.5M12.5 23.5H12.5179M12.5 31.5H12.5179" stroke="#B9B8B8" stroke-width="4" stroke-linecap="round" stroke-linejoin="round"/>
    <path d="M3.5 13.5H37.5" stroke="#B9B8B8" stroke-width="3" stroke-linecap="round" stroke-linejoin="round"/>
    <path d="M1.5 21.9865C1.5 13.2719 1.5 8.91457 4.00424 6.20728C6.50847 3.5 10.539 3.5 18.6 3.5H22.4C30.461 3.5 34.4915 3.5 36.9958 6.20728C39.5 8.91457 39.5 13.2719 39.5 21.9865V23.0135C39.5 31.7281 39.5 36.0854 36.9958 38.7927C34.4915 41.5 30.461 41.5 22.4 41.5H18.6C10.539 41.5 6.50847 41.5 4.00424 38.7927C1.5 36.0854 1.5 31.7281 1.5 23.0135V21.9865Z" stroke="#B9B8B8" stroke-width="3" stroke-linecap="round" stroke-linejoin="round"/>
    <path d="M2.5 13.5H38.5" stroke="#B9B8B8" stroke-width="3" stroke-linecap="round" stroke-linejoin="round"/>
</svg>
