<svg xmlns="http://www.w3.org/2000/svg">

    <symbol id="calendar"  viewBox="0 0 24 24" fill="#B9B8B8">
        <path d="M200-80q-33 0-56.5-23.5T120-160v-560q0-33 23.5-56.5T200-800h40v-80h80v80h320v-80h80v80h40q33 0 56.5 23.5T840-720v560q0 33-23.5 56.5T760-80H200Zm0-80h560v-400H200v400Zm0-480h560v-80H200v80Zm0 0v-80 80Zm280 240q-17 0-28.5-11.5T440-440q0-17 11.5-28.5T480-480q17 0 28.5 11.5T520-440q0 17-11.5 28.5T480-400Zm-160 0q-17 0-28.5-11.5T280-440q0-17 11.5-28.5T320-480q17 0 28.5 11.5T360-440q0 17-11.5 28.5T320-400Zm320 0q-17 0-28.5-11.5T600-440q0-17 11.5-28.5T640-480q17 0 28.5 11.5T680-440q0 17-11.5 28.5T640-400ZM480-240q-17 0-28.5-11.5T440-280q0-17 11.5-28.5T480-320q17 0 28.5 11.5T520-280q0 17-11.5 28.5T480-240Zm-160 0q-17 0-28.5-11.5T280-280q0-17 11.5-28.5T320-320q17 0 28.5 11.5T360-280q0 17-11.5 28.5T320-240Zm320 0q-17 0-28.5-11.5T600-280q0-17 11.5-28.5T640-320q17 0 28.5 11.5T680-280q0 17-11.5 28.5T640-240Z"/>
    </symbol>

    <symbol id="arrow-left"  viewBox="0 0 15 15" fill="var(--green-color)" >
        <path fill-rule="evenodd" clip-rule="evenodd" d="M8.84182 3.13514C9.04327 3.32401 9.05348 3.64042 8.86462 3.84188L5.43521 7.49991L8.86462 11.1579C9.05348 11.3594 9.04327 11.6758 8.84182 11.8647C8.64036 12.0535 8.32394 12.0433 8.13508 11.8419L4.38508 7.84188C4.20477 7.64955 4.20477 7.35027 4.38508 7.15794L8.13508 3.15794C8.32394 2.95648 8.64036 2.94628 8.84182 3.13514Z" fill="var(--green-color)"/>
    </symbol>

    <symbol id="arrow-right"  viewBox="0 0 15 15" fill="var(--green-color)">
        <path fill-rule="evenodd" clip-rule="evenodd" d="M6.1584 3.13508C6.35985 2.94621 6.67627 2.95642 6.86514 3.15788L10.6151 7.15788C10.7954 7.3502 10.7954 7.64949 10.6151 7.84182L6.86514 11.8418C6.67627 12.0433 6.35985 12.0535 6.1584 11.8646C5.95694 11.6757 5.94673 11.3593 6.1356 11.1579L9.565 7.49985L6.1356 3.84182C5.94673 3.64036 5.95694 3.32394 6.1584 3.13508Z" fill="var(--green-color)"/>
    </symbol>

    <symbol id="arrow-link"  viewBox="0 0 15 15" fill="none" >
        <path fill-rule="evenodd" clip-rule="evenodd" d="M8.14645 3.14645C8.34171 2.95118 8.65829 2.95118 8.85355 3.14645L12.8536 7.14645C13.0488 7.34171 13.0488 7.65829 12.8536 7.85355L8.85355 11.8536C8.65829 12.0488 8.34171 12.0488 8.14645 11.8536C7.95118 11.6583 7.95118 11.3417 8.14645 11.1464L11.2929 8H2.5C2.22386 8 2 7.77614 2 7.5C2 7.22386 2.22386 7 2.5 7H11.2929L8.14645 3.85355C7.95118 3.65829 7.95118 3.34171 8.14645 3.14645Z" fill="var(--link-arrow)"/>
    </symbol>

    <symbol id="vk" viewBox="0 0 32 32" fill="none">
        <path d="M32 16C32 7.16344 24.8366 0 16 0C7.16344 0 0 7.16344 0 16C0 24.8366 7.16344 32 16 32C24.8366 32 32 24.8366 32 16Z" fill="#0077FF"/>
        <path d="M8 15.68C8 12.0587 8 10.2507 9.12 9.12C10.256 8 12.064 8 15.68 8H16.32C19.9413 8 21.7493 8 22.88 9.12C24 10.256 24 12.064 24 15.68V16.32C24 19.9413 24 21.7493 22.88 22.88C21.744 24 19.936 24 16.32 24H15.68C12.0587 24 10.2507 24 9.12 22.88C8 21.744 8 19.936 8 16.32V15.68Z" fill="white"/>
        <path d="M16.512 19.5253C12.864 19.5253 10.784 17.0293 10.6987 12.8693H12.5333C12.592 15.92 13.936 17.2107 15.0027 17.4773V12.8693H16.7253V15.4987C17.776 15.3867 18.8853 14.1867 19.2587 12.864H20.976C20.836 13.5487 20.5563 14.1971 20.1543 14.7688C19.7524 15.3405 19.2369 15.8232 18.64 16.1867C19.3061 16.5182 19.8943 16.9872 20.366 17.5627C20.8376 18.1382 21.1818 18.8071 21.376 19.5253H19.4827C19.0773 18.2613 18.064 17.28 16.7253 17.1467V19.5253H16.5173H16.512Z" fill="#0077FF"/>
    </symbol>

    <symbol id="ok"  viewBox="0 0 32 32" fill="none">
        <path d="M0 16C0 7.16344 7.16344 0 16 0C24.8366 0 32 7.16344 32 16C32 24.8366 24.8366 32 16 32C7.16344 32 0 24.8366 0 16Z" fill="#FF8800"/>
        <path fill-rule="evenodd" clip-rule="evenodd" d="M20.8763 11.4703C20.8763 14.1395 18.7003 16.3155 16.0309 16.3155C13.3327 16.3155 11.1567 14.1395 11.1567 11.4703C11.1567 8.80101 13.3327 6.625 16.0309 6.625C18.7003 6.625 20.8763 8.80101 20.8763 11.4703ZM18.0329 11.4703C18.0329 10.3677 17.1335 9.46832 16.0309 9.46832C14.8995 9.46832 14 10.3677 14.0291 11.4703C14.0291 12.5728 14.9285 13.4721 16.0309 13.4721C17.1335 13.4721 18.0329 12.5728 18.0329 11.4703Z" fill="white"/>
        <path d="M20.7892 19.1299C19.9188 19.6811 18.9613 20.0583 17.9749 20.2904L20.7312 22.9596C21.2824 23.5109 21.2824 24.4103 20.7312 24.9616C20.18 25.5128 19.2805 25.5128 18.7293 24.9616L16.06 22.2923L13.3908 24.9616C13.1007 25.2227 12.7525 25.3677 12.3753 25.3677C11.9982 25.3677 11.65 25.2517 11.3599 24.9616C10.8086 24.4103 10.8086 23.5109 11.3599 22.9596L14.0581 20.2613C13.0716 20.0292 12.1142 19.6521 11.2438 19.1008C10.5765 18.6947 10.3734 17.8243 10.7506 17.1569C11.1858 16.4896 12.0562 16.3156 12.7235 16.7217C14.6964 17.9693 17.2785 17.9693 19.2515 16.7217C19.9188 16.2865 20.8183 16.4896 21.2244 17.1569C21.6596 17.8243 21.4565 18.7236 20.7892 19.1299Z" fill="white"/>
    </symbol>

    <symbol id="tg" viewBox="0 0 32 32" fill="none">
        <path d="M0 16C0 24.8366 7.16344 32 16 32C24.8366 32 32 24.8366 32 16C32 7.16344 24.8366 0 16 0C7.16344 0 0 7.16344 0 16Z" fill="#0088CC"/>
        <path d="M8.09992 15.7083C12.3949 13.8371 15.2589 12.6034 16.6919 12.0074C20.7834 10.3056 21.6335 10.01 22.1877 10.0001C22.3095 9.99805 22.582 10.0283 22.7586 10.1715C22.9076 10.2924 22.9486 10.4558 22.9683 10.5705C22.9879 10.6851 23.0123 10.9464 22.9929 11.1505C22.7712 13.4801 21.8118 19.1335 21.3237 21.7427C21.1172 22.8468 20.7105 23.217 20.3168 23.2532C19.4613 23.3319 18.8116 22.6878 17.9829 22.1446C16.6862 21.2946 15.9537 20.7654 14.695 19.936C13.2404 18.9774 14.1834 18.4506 15.0124 17.5896C15.2293 17.3643 18.999 13.9355 19.0719 13.6244C19.0811 13.5855 19.0895 13.4405 19.0034 13.3639C18.9172 13.2874 18.7901 13.3136 18.6983 13.3344C18.5683 13.3639 16.4968 14.7331 12.4839 17.4419C11.8959 17.8457 11.3633 18.0424 10.8862 18.0321C10.3601 18.0207 9.34822 17.7346 8.59598 17.4901C7.67333 17.1902 6.94002 17.0316 7.00388 16.5223C7.03714 16.257 7.40248 15.9856 8.09992 15.7083Z" fill="white"/>
    </symbol>

    <symbol id="phone"  viewBox="0 0 24 24" fill="var(--icon-color)" >
        <path d="M15.0499 5C16.0267 5.19057 16.9243 5.66826 17.628 6.37194C18.3317 7.07561 18.8094 7.97326 18.9999 8.95M15.0499 1C17.0792 1.22544 18.9715 2.13417 20.4162 3.57701C21.8608 5.01984 22.7719 6.91101 22.9999 8.94M21.9999 16.92V19.92C22.0011 20.1985 21.944 20.4742 21.8324 20.7293C21.7209 20.9845 21.5572 21.2136 21.352 21.4019C21.1468 21.5901 20.9045 21.7335 20.6407 21.8227C20.3769 21.9119 20.0973 21.9451 19.8199 21.92C16.7428 21.5856 13.7869 20.5341 11.1899 18.85C8.77376 17.3147 6.72527 15.2662 5.18993 12.85C3.49991 10.2412 2.44818 7.27099 2.11993 4.18C2.09494 3.90347 2.12781 3.62476 2.21643 3.36162C2.30506 3.09849 2.4475 2.85669 2.6347 2.65162C2.82189 2.44655 3.04974 2.28271 3.30372 2.17052C3.55771 2.05833 3.83227 2.00026 4.10993 2H7.10993C7.59524 1.99522 8.06572 2.16708 8.43369 2.48353C8.80166 2.79999 9.04201 3.23945 9.10993 3.72C9.23656 4.68007 9.47138 5.62273 9.80993 6.53C9.94448 6.88792 9.9736 7.27691 9.89384 7.65088C9.81408 8.02485 9.6288 8.36811 9.35993 8.64L8.08993 9.91C9.51349 12.4135 11.5864 14.4864 14.0899 15.91L15.3599 14.64C15.6318 14.3711 15.9751 14.1858 16.3491 14.1061C16.723 14.0263 17.112 14.0555 17.4699 14.19C18.3772 14.5286 19.3199 14.7634 20.2799 14.89C20.7657 14.9585 21.2093 15.2032 21.5265 15.5775C21.8436 15.9518 22.0121 16.4296 21.9999 16.92Z" stroke="var(--icon-color)" stroke-width="2" stroke-linecap="round" stroke-linejoin="round"/>
    </symbol>


    <symbol id="mail"  viewBox="0 0 24 24" fill="none" >
        <path fill-rule="evenodd" clip-rule="evenodd" d="M5 6H19C19.3862 6 19.7213 6.21897 19.8879 6.53954L12.5547 11.4283C12.2188 11.6523 11.7812 11.6523 11.4453 11.4283L4.11209 6.53953C4.27868 6.21896 4.61377 6 5 6ZM4 8.8685V17C4 17.5523 4.44772 18 5 18H19C19.5523 18 20 17.5523 20 17V8.86852L13.6641 13.0924C12.6564 13.7642 11.3436 13.7642 10.3359 13.0924L4 8.8685ZM2 7C2 5.34315 3.34315 4 5 4H19C20.6569 4 22 5.34315 22 7V17C22 18.6569 20.6569 20 19 20H5C3.34315 20 2 18.6569 2 17V7Z" fill="#aaa"/>

    </symbol>


    <symbol id="alarm" viewBox="0 0 100 125" xmlns="http://www.w3.org/2000/svg">
        <g>
            <path fill="var(--icon-color)" d="M79.192,86.927c-0.415-1.286-1.612-2.157-2.963-2.157h-6.656V56.513c0-11.453-9.284-20.737-20.737-20.737
             s-20.737,9.284-20.737,20.737v28.256h-6.656c-1.351,0-2.548,0.872-2.963,2.157l-0.956,2.965h62.625L79.192,86.927z
             M65.233,81.547H32.439V56.304c0-9.056,7.341-16.397,16.397-16.397c9.056,0,16.397,7.341,16.397,16.397V81.547z"/>
            <path fill="var(--icon-color)" d="M34.546,56.962v22.15h22.636c0,0-8.016-8.386-8.016-36.77C41.092,42.342,34.546,48.888,34.546,56.962z"/>
        </g>

        <path fill="#aaa" d="M93.035,56.456H78.711c-0.913,0-1.652-0.74-1.652-1.652s0.74-1.652,1.652-1.652h14.324
           c0.913,0,1.652,0.74,1.652,1.652S93.948,56.456,93.035,56.456z"/>

        <path fill="#aaa" d="M74.723,42.055c-0.571,0-1.126-0.296-1.433-0.827c-0.456-0.79-0.186-1.801,0.605-2.257L86.3,31.81
           c0.791-0.456,1.801-0.185,2.257,0.605c0.456,0.79,0.186,1.801-0.605,2.257l-12.405,7.162C75.287,41.984,75.003,42.055,74.723,42.055z"/>

        <path fill="#aaa" d="M64.064,31.579c-0.28,0-0.564-0.071-0.825-0.222c-0.79-0.456-1.061-1.467-0.605-2.257l7.162-12.405
           c0.456-0.79,1.467-1.061,2.257-0.605c0.79,0.456,1.061,1.467,0.605,2.257l-7.162,12.405C65.191,31.282,64.635,31.579,64.064,31.579z"/>

        <path fill="#aaa" d="M49.6,27.833c-0.913,0-1.652-0.74-1.652-1.652V11.857c0-0.913,0.74-1.652,1.652-1.652s1.652,0.74,1.652,1.652v14.324
           C51.252,27.093,50.512,27.833,49.6,27.833z"/>

        <path fill="#aaa" d="M35.2,31.823c-0.571,0-1.126-0.296-1.433-0.827l-7.162-12.405c-0.456-0.79-0.186-1.801,0.605-2.257
           c0.79-0.456,1.801-0.185,2.257,0.605l7.162,12.405c0.456,0.79,0.186,1.801-0.605,2.257C35.765,31.752,35.481,31.823,35.2,31.823z"/>

        <path fill="#aaa" d="M24.721,42.479c-0.28,0-0.564-0.071-0.825-0.222l-12.405-7.162c-0.79-0.456-1.061-1.467-0.605-2.257
           c0.456-0.79,1.467-1.061,2.257-0.605l12.405,7.162c0.79,0.456,1.061,1.467,0.605,2.257C25.847,42.182,25.292,42.479,24.721,42.479z"/>

        <path fill="#aaa" d="M20.977,56.944H6.652C5.74,56.944,5,56.205,5,55.292s0.74-1.652,1.652-1.652h14.324c0.913,0,1.652,0.74,1.652,1.652
           S21.889,56.944,20.977,56.944z"/>
    </symbol>

    <symbol id="top-circle"  viewBox="0 0 24 24" fill="none" >
        <path fill-rule="evenodd" clip-rule="evenodd" d="M12 4C7.58172 4 4 7.58172 4 12C4 16.4183 7.58172 20 12 20C16.4183 20 20 16.4183 20 12C20 7.58172 16.4183 4 12 4ZM2 12C2 6.47715 6.47715 2 12 2C17.5228 2 22 6.47715 22 12C22 17.5228 17.5228 22 12 22C6.47715 22 2 17.5228 2 12ZM8.29289 11.2929L11.2929 8.29289C11.6834 7.90237 12.3166 7.90237 12.7071 8.29289L15.7071 11.2929C16.0976 11.6834 16.0976 12.3166 15.7071 12.7071C15.3166 13.0976 14.6834 13.0976 14.2929 12.7071L13 11.4142V15C13 15.5523 12.5523 16 12 16C11.4477 16 11 15.5523 11 15V11.4142L9.70711 12.7071C9.31658 13.0976 8.68342 13.0976 8.29289 12.7071C7.90237 12.3166 7.90237 11.6834 8.29289 11.2929Z" fill="white"/>
    </symbol>

</svg>


