<svg width="24" height="24" viewBox="0 0 100 100" fill="none" xmlns="http://www.w3.org/2000/svg">
    <path fill-rule="evenodd" clip-rule="evenodd" d="M69.3103 40.3448C69.3103 56.3421 56.342 69.3104 40.3448 69.3104C24.3476 69.3104 11.3793 56.3421 11.3793 40.3448C11.3793 24.3476 24.3476 11.3793 40.3448 11.3793C56.342 11.3793 69.3103 24.3476 69.3103 40.3448ZM63.5904 69.4424C57.2194 74.5388 49.138 77.5862 40.3448 77.5862C19.777 77.5862 3.10345 60.9127 3.10345 40.3448C3.10345 19.777 19.777 3.10343 40.3448 3.10343C60.9127 3.10343 77.5862 19.777 77.5862 40.3448C77.5862 49.138 74.5387 57.2194 69.4423 63.5904L94.9949 89.143C96.6109 90.759 96.6109 93.379 94.9949 94.9949C93.3789 96.6109 90.7589 96.6109 89.143 94.9949L63.5904 69.4424Z" fill="#aaa"/>
</svg>
